<svg xmlns="http://www.w3.org/2000/svg" width="191.47" height="56.16" viewBox="0 0 191.47 56.16">
  <g fill="#ffffff">
    <path d="M8.37890625 28.753359375000002Q8.607421875 32.3334375 10.892578125 34.263125Q13.177734375 36.1928125 16.859375 36.1928125Q20.134765625 36.1928125 22.0771484375 34.7709375Q24.01953125 33.3490625 24.01953125 30.530703125000002Q24.01953125 29.413515625000002 23.638671875 28.550234375000002Q23.2578125 27.686953125000002 22.724609375 27.141054687500002Q22.19140625 26.595156250000002 21.1123046875 26.074648437500002Q20.033203125 25.554140625000002 19.169921875 25.262148437500002Q18.306640625 24.970156250000002 16.7578125 24.487734375000002Q16.580078125 24.436953125000002 16.478515625 24.398867187500002Q16.376953125 24.360781250000002 16.2119140625 24.322695312500002Q16.046875 24.284609375000002 15.919921875 24.233828125000002Q14.625 23.852968750000002 13.86328125 23.611757812500002Q13.1015625 23.370546875000002 11.908203125 22.938906250000002Q10.71484375 22.507265625000002 9.978515625 22.164492187500002Q9.2421875 21.821718750000002 8.251953125 21.263125000000002Q7.26171875 20.704531250000002 6.6650390625 20.158632812500002Q6.068359375 19.612734375000002 5.3955078125 18.851015625000002Q4.72265625 18.089296875000002 4.3544921875 17.264101562500002Q3.986328125 16.438906250000002 3.7451171875 15.372500000000002Q3.50390625 14.306093750000002 3.478515625 13.112734375000002Q3.453125 10.548281250000002 4.5322265625 8.491640625000002Q5.611328125 6.435000000000002 7.4521484375 5.165468750000002Q9.29296875 3.8959375000000023 11.603515625 3.2230859375000023Q13.9140625 2.5502343750000023 16.478515625 2.5502343750000023Q22.267578125 2.5502343750000023 25.822265625 5.419375000000002Q29.376953125 8.288515625000002 29.91015625 14.102968750000002H23.5625Q23.029296875 10.852968750000002 21.3154296875 9.304140625000002Q19.6015625 7.755312500000002 16.376953125 7.755312500000002Q13.431640625 7.755312500000002 11.603515625 9.062929687500002Q9.775390625 10.370546875000002 9.775390625 13.061953125000002Q9.775390625 14.280703125000002 10.3212890625 15.220156250000002Q10.8671875 16.159609375000002 12.0224609375 16.883242187500002Q13.177734375 17.606875000000002 14.4599609375 18.101992187500002Q15.7421875 18.597109375000002 17.7734375 19.181093750000002Q22.470703125 20.577578125000002 24.171875 21.364687500000002Q28.28515625 23.218203125000002 29.60546875 26.417421875000002Q30.31640625 28.169375000000002 30.31640625 30.479921875000002Q30.31640625 33.222109375 29.1865234375 35.3803125Q28.056640625 37.538515625 26.1396484375 38.8334375Q24.22265625 40.128359375 21.861328125 40.788515625Q19.5 41.448671875 16.859375 41.448671875Q13.76171875 41.448671875 11.171875 40.6742578125Q8.58203125 39.89984375 6.576171875 38.37640625Q4.5703125 36.85296875 3.3642578125 34.390078125Q2.158203125 31.927187500000002 1.98046875 28.753359375000002Z"/> <path d="M33.16015625 8.745546875000002V3.4389062500000023H61.49609375V8.745546875000002H50.42578125V40.56H44.12890625V8.745546875000002Z"/> <path d="M94.859375 26.366640625000002Q94.859375 28.931093750000002 94.3388671875 31.165468750000002Q93.818359375 33.39984375 92.701171875 35.304140625Q91.583984375 37.2084375 89.908203125 38.5668359375Q88.232421875 39.925234375 85.8203125 40.686953125Q83.408203125 41.448671875 80.412109375 41.448671875Q76.6796875 41.448671875 73.8359375 40.3187890625Q70.9921875 39.18890625 69.2529296875 37.132265625Q67.513671875 35.075625 66.650390625 32.3715234375Q65.787109375 29.667421875000002 65.787109375 26.366640625000002V3.4389062500000023H72.083984375V26.366640625000002Q72.083984375 28.448671875000002 72.5791015625 30.175234375000002Q73.07421875 31.901796875000002 74.064453125 33.2475Q75.0546875 34.593203125 76.6796875 35.3422265625Q78.3046875 36.09125 80.412109375 36.09125Q82.494140625 36.09125 84.0810546875 35.3422265625Q85.66796875 34.593203125 86.6328125 33.2475Q87.59765625 31.901796875000002 88.080078125 30.175234375000002Q88.5625 28.448671875000002 88.5625 26.366640625000002V3.4389062500000023H94.859375Z"/> <path d="M113.724609375 3.4389062500000023Q123.068359375 3.4389062500000023 128.171875 8.250429687500002Q133.275390625 13.061953125000002 133.275390625 21.466250000000002Q133.275390625 27.128359375000002 131.041015625 31.419375000000002Q128.806640625 35.710390625 124.4013671875 38.1351953125Q119.99609375 40.56 113.927734375 40.56H102.349609375V3.4389062500000023ZM108.62109375 35.253359375H113.978515625Q119.79296875 35.253359375 123.3603515625 31.685976562500002Q126.927734375 28.118593750000002 126.927734375 21.466250000000002Q126.927734375 18.292421875000002 125.962890625 15.829531250000002Q124.998046875 13.366640625000002 123.24609375 11.830507812500002Q121.494140625 10.294375000000002 119.1328125 9.519960937500002Q116.771484375 8.745546875000002 113.876953125 8.745546875000002H108.62109375Z"/> <path d="M138.9375 3.4389062500000023H145.208984375V40.56H138.9375Z"/> <path d="M162.068359375 4.124453125000002Q165.775390625 2.5502343750000023 170.21875 2.5502343750000023Q174.662109375 2.5502343750000023 178.369140625 4.124453125000002Q182.076171875 5.698671875000002 184.5009765625 8.377382812500002Q186.92578125 11.056093750000002 188.2587890625 14.572695312500002Q189.591796875 18.089296875000002 189.591796875 21.999453125000002Q189.591796875 25.909609375000002 188.2587890625 29.426210937500002Q186.92578125 32.9428125 184.5009765625 35.6215234375Q182.076171875 38.300234375 178.369140625 39.874453125Q174.662109375 41.448671875 170.21875 41.448671875Q165.775390625 41.448671875 162.068359375 39.874453125Q158.361328125 38.300234375 155.9365234375 35.6215234375Q153.51171875 32.9428125 152.19140625 29.426210937500002Q150.87109375 25.909609375000002 150.87109375 21.999453125000002Q150.87109375 18.089296875000002 152.19140625 14.572695312500002Q153.51171875 11.056093750000002 155.9365234375 8.377382812500002Q158.361328125 5.698671875000002 162.068359375 4.124453125000002ZM158.056640625 16.629335937500002Q157.16796875 19.181093750000002 157.16796875 21.999453125000002Q157.16796875 24.817812500000002 158.056640625 27.369570312500002Q158.9453125 29.921328125000002 160.5576171875 31.876406250000002Q162.169921875 33.831484375 164.68359375 34.9867578125Q167.197265625 36.14203125 170.21875 36.14203125Q173.240234375 36.14203125 175.75390625 34.9867578125Q178.267578125 33.831484375 179.9052734375 31.876406250000002Q181.54296875 29.921328125000002 182.431640625 27.369570312500002Q183.3203125 24.817812500000002 183.3203125 21.999453125000002Q183.3203125 19.181093750000002 182.431640625 16.629335937500002Q181.54296875 14.077578125000002 179.9052734375 12.122500000000002Q178.267578125 10.167421875000002 175.75390625 9.012148437500002Q173.240234375 7.856875000000002 170.21875 7.856875000000002Q167.197265625 7.856875000000002 164.68359375 9.012148437500002Q162.169921875 10.167421875000002 160.5576171875 12.122500000000002Q158.9453125 14.077578125000002 158.056640625 16.629335937500002Z"/>
  </g>
</svg>
