<svg xmlns="http://www.w3.org/2000/svg" width="198.15" height="58.32" viewBox="0 0 198.15 58.32">
  <g fill="#ffffff">
    <path d="M33.9609375 27.380742187500005Q33.9609375 30.043828125000005 33.42041015625 32.364140625000005Q32.8798828125 34.684453125000005 31.7197265625 36.661992187500005Q30.5595703125 38.639531250000005 28.8193359375 40.050175781250005Q27.0791015625 41.460820312500005 24.57421875 42.251835937500005Q22.0693359375 43.042851562500005 18.9580078125 43.042851562500005Q15.08203125 43.042851562500005 12.12890625 41.869511718750005Q9.17578125 40.696171875000005 7.36962890625 38.560429687500005Q5.5634765625 36.424687500000005 4.6669921875 33.616582031250005Q3.7705078125 30.808476562500005 3.7705078125 27.380742187500005V3.5711718750000045H10.3095703125V27.380742187500005Q10.3095703125 29.542851562500005 10.82373046875 31.335820312500005Q11.337890625 33.128789062500005 12.3662109375 34.526250000000005Q13.39453125 35.923710937500005 15.08203125 36.701542968750005Q16.76953125 37.479375000000005 18.9580078125 37.479375000000005Q21.1201171875 37.479375000000005 22.76806640625 36.701542968750005Q24.416015625 35.923710937500005 25.41796875 34.526250000000005Q26.419921875 33.128789062500005 26.9208984375 31.335820312500005Q27.421875 29.542851562500005 27.421875 27.380742187500005V3.5711718750000045H33.9609375Z"/> <path d="M38.49609375 9.081914062500005V3.5711718750000045H67.921875V9.081914062500005H56.42578125V42.120000000000005H49.88671875V9.081914062500005Z"/> <path d="M82.1865234375 4.2830859375000045Q86.0361328125 2.6483203125000045 90.650390625 2.6483203125000045Q95.2646484375 2.6483203125000045 99.1142578125 4.2830859375000045Q102.9638671875 5.9178515625000045 105.48193359375 8.699589843750005Q108.0 11.481328125000005 109.38427734375 15.133183593750005Q110.7685546875 18.785039062500005 110.7685546875 22.845585937500005Q110.7685546875 26.906132812500005 109.38427734375 30.557988281250005Q108.0 34.209843750000005 105.48193359375 36.991582031250005Q102.9638671875 39.773320312500005 99.1142578125 41.408085937500005Q95.2646484375 43.042851562500005 90.650390625 43.042851562500005Q86.0361328125 43.042851562500005 82.1865234375 41.408085937500005Q78.3369140625 39.773320312500005 75.81884765625 36.991582031250005Q73.30078125 34.209843750000005 71.9296875 30.557988281250005Q70.55859375 26.906132812500005 70.55859375 22.845585937500005Q70.55859375 18.785039062500005 71.9296875 15.133183593750005Q73.30078125 11.481328125000005 75.81884765625 8.699589843750005Q78.3369140625 5.9178515625000045 82.1865234375 4.2830859375000045ZM78.0205078125 17.268925781250005Q77.09765625 19.918828125000005 77.09765625 22.845585937500005Q77.09765625 25.772343750000005 78.0205078125 28.422246093750005Q78.943359375 31.072148437500005 80.61767578125 33.102421875000005Q82.2919921875 35.132695312500005 84.90234375 36.332402343750005Q87.5126953125 37.532109375000005 90.650390625 37.532109375000005Q93.7880859375 37.532109375000005 96.3984375 36.332402343750005Q99.0087890625 35.132695312500005 100.70947265625 33.102421875000005Q102.41015625 31.072148437500005 103.3330078125 28.422246093750005Q104.255859375 25.772343750000005 104.255859375 22.845585937500005Q104.255859375 19.918828125000005 103.3330078125 17.268925781250005Q102.41015625 14.619023437500005 100.70947265625 12.588750000000005Q99.0087890625 10.558476562500005 96.3984375 9.358769531250005Q93.7880859375 8.159062500000005 90.650390625 8.159062500000005Q87.5126953125 8.159062500000005 84.90234375 9.358769531250005Q82.2919921875 10.558476562500005 80.61767578125 12.588750000000005Q78.943359375 14.619023437500005 78.0205078125 17.268925781250005Z"/> <path d="M129.62109375 22.186406250000005Q133.3125 22.186406250000005 135.46142578125 20.432988281250005Q137.6103515625 18.679570312500005 137.6103515625 15.489140625000005Q137.6103515625 12.298710937500005 135.5537109375 10.663945312500005Q133.4970703125 9.029179687500005 129.779296875 9.029179687500005H123.240234375V22.186406250000005ZM116.7275390625 42.120000000000005V3.5711718750000045H130.3330078125Q136.5556640625 3.5711718750000045 140.3525390625 6.9198046875000045Q144.1494140625 10.268437500000005 144.1494140625 15.436406250000005Q144.1494140625 18.864140625000005 142.31689453125 21.659062500000005Q140.484375 24.453984375000005 137.28076171875 26.049199218750005Q134.0771484375 27.644414062500005 130.1748046875 27.644414062500005H123.240234375V42.120000000000005Z"/> <path d="M149.818359375 3.5711718750000045H156.3310546875V42.120000000000005H149.818359375Z"/> <path d="M167.8271484375 42.120000000000005H161.0244140625L175.1572265625 3.5711718750000045H183.3046875L197.4111328125 42.120000000000005H190.5556640625L186.837890625 31.652226562500005H171.544921875ZM173.390625 26.405156250000005H184.9921875L179.2705078125 9.503789062500005H179.1123046875Z"/>
  </g>
</svg>
