<svg xmlns="http://www.w3.org/2000/svg" width="125.57" height="17.28" viewBox="0 0 125.57 17.28">
  <g fill="#c7bebe">
    <path d="M4.6875 1.0581250000000004Q7.5625 1.0581250000000004 9.1328125 2.5385937500000004Q10.703125 4.0190625 10.703125 6.605Q10.703125 8.3471875 10.015625 9.6675Q9.328125 10.9878125 7.97265625 11.73390625Q6.6171875 12.48 4.75 12.48H1.1875V1.0581250000000004ZM3.1171875 10.8471875H4.765625Q6.5546875 10.8471875 7.65234375 9.74953125Q8.75 8.651875 8.75 6.605Q8.75 5.6284375 8.453125 4.870625Q8.15625 4.1128125 7.6171875 3.6401562500000004Q7.078125 3.1675000000000004 6.3515625 2.9292187500000004Q5.625 2.6909375000000004 4.734375 2.6909375000000004H3.1171875Z"/> <path d="M19.75 1.0581250000000004V2.6909375000000004H14.375V5.88625H19.4140625V7.5034375H14.375V10.8471875H19.8046875V12.48H12.4453125V1.0581250000000004Z"/> <path d="M23.2578125 8.8471875Q23.328125 9.94875 24.03125 10.5425Q24.734375 11.13625 25.8671875 11.13625Q26.875 11.13625 27.47265625 10.69875Q28.0703125 10.26125 28.0703125 9.3940625Q28.0703125 9.0503125 27.953125 8.7846875Q27.8359375 8.5190625 27.671875 8.35109375Q27.5078125 8.183125 27.17578125 8.02296875Q26.84375 7.8628125 26.578125 7.77296875Q26.3125 7.683125 25.8359375 7.5346875Q25.78125 7.5190625 25.75 7.50734375Q25.71875 7.495625 25.66796875 7.48390625Q25.6171875 7.4721875 25.578125 7.4565625Q25.1796875 7.339375 24.9453125 7.26515625Q24.7109375 7.1909375 24.34375 7.058125Q23.9765625 6.9253125 23.75 6.81984375Q23.5234375 6.714375 23.21875 6.5425Q22.9140625 6.370625 22.73046875 6.20265625Q22.546875 6.0346875 22.33984375 5.8003125Q22.1328125 5.5659375 22.01953125 5.31203125Q21.90625 5.058125 21.83203125 4.73Q21.7578125 4.401875 21.75 4.0346875Q21.7421875 3.2456250000000004 22.07421875 2.6128125000000004Q22.40625 1.9800000000000004 22.97265625 1.5893750000000004Q23.5390625 1.1987500000000004 24.25 0.9917187500000004Q24.9609375 0.7846875000000004 25.75 0.7846875000000004Q27.53125 0.7846875000000004 28.625 1.6675000000000004Q29.71875 2.5503125000000004 29.8828125 4.339375H27.9296875Q27.765625 3.3393750000000004 27.23828125 2.8628125000000004Q26.7109375 2.3862500000000004 25.71875 2.3862500000000004Q24.8125 2.3862500000000004 24.25 2.7885937500000004Q23.6875 3.1909375000000004 23.6875 4.0190625Q23.6875 4.3940625 23.85546875 4.683125Q24.0234375 4.9721875 24.37890625 5.19484375Q24.734375 5.4175 25.12890625 5.56984375Q25.5234375 5.7221875 26.1484375 5.901875Q27.59375 6.3315625 28.1171875 6.57375Q29.3828125 7.1440625 29.7890625 8.1284375Q30.0078125 8.6675 30.0078125 9.3784375Q30.0078125 10.2221875 29.66015625 10.88625Q29.3125 11.5503125 28.72265625 11.94875Q28.1328125 12.3471875 27.40625 12.5503125Q26.6796875 12.7534375 25.8671875 12.7534375Q24.9140625 12.7534375 24.1171875 12.51515625Q23.3203125 12.276875 22.703125 11.808125Q22.0859375 11.339375 21.71484375 10.5815625Q21.34375 9.82375 21.2890625 8.8471875Z"/> <path d="M31.84375 1.0581250000000004H33.7734375V12.48H31.84375Z"/> <path d="M41.2421875 8.0346875V6.526875H46.40625L46.265625 12.48H44.96875L44.859375 10.7065625Q43.9296875 12.7534375 41.1484375 12.7534375Q39.8359375 12.7534375 38.75390625 12.26125Q37.671875 11.7690625 36.97265625 10.93703125Q36.2734375 10.105 35.89453125 9.03078125Q35.515625 7.9565625 35.515625 6.7690625Q35.515625 5.57375 35.90234375 4.5034375Q36.2890625 3.4331250000000004 37.01171875 2.6010937500000004Q37.734375 1.7690625000000004 38.86328125 1.2768750000000004Q39.9921875 0.7846875000000004 41.3671875 0.7846875000000004Q42.2109375 0.7846875000000004 42.9453125 0.9800000000000004Q43.6796875 1.1753125000000004 44.2265625 1.5190625000000004Q44.7734375 1.8628125000000004 45.20703125 2.3393750000000004Q45.640625 2.8159375000000004 45.921875 3.3589062500000004Q46.203125 3.9018750000000004 46.375 4.526875H44.4453125Q43.7578125 2.4175000000000004 41.3671875 2.4175000000000004Q40.421875 2.4175000000000004 39.6640625 2.7690625000000004Q38.90625 3.1206250000000004 38.4296875 3.7260937500000004Q37.953125 4.3315625 37.703125 5.10890625Q37.453125 5.88625 37.453125 6.7690625Q37.453125 7.651875 37.69921875 8.42921875Q37.9453125 9.2065625 38.4140625 9.81203125Q38.8828125 10.4175 39.62109375 10.7690625Q40.359375 11.120625 41.2734375 11.120625Q41.96875 11.120625 42.5546875 10.94484375Q43.140625 10.7690625 43.61328125 10.40578125Q44.0859375 10.0425 44.37109375 9.433125Q44.65625 8.82375 44.7109375 8.0190625Z"/> <path d="M48.4921875 1.0581250000000004H50.984375L54.7890625 7.683125Q55.6484375 9.2925 56.0390625 9.964375Q56.0078125 8.26125 56.0078125 7.276875V1.0581250000000004H57.9140625V12.48H55.3984375L51.765625 6.2534375Q51.4453125 5.6440625 50.90625 4.6440625Q50.3671875 3.6440625000000004 50.359375 3.6284375000000004Q50.390625 5.3628125 50.390625 6.495625V12.48H48.4921875Z"/> <path d="M65.265625 8.8471875Q65.3359375 9.94875 66.0390625 10.5425Q66.7421875 11.13625 67.875 11.13625Q68.8828125 11.13625 69.48046875 10.69875Q70.078125 10.26125 70.078125 9.3940625Q70.078125 9.0503125 69.9609375 8.7846875Q69.84375 8.5190625 69.6796875 8.35109375Q69.515625 8.183125 69.18359375 8.02296875Q68.8515625 7.8628125 68.5859375 7.77296875Q68.3203125 7.683125 67.84375 7.5346875Q67.7890625 7.5190625 67.7578125 7.50734375Q67.7265625 7.495625 67.67578125 7.48390625Q67.625 7.4721875 67.5859375 7.4565625Q67.1875 7.339375 66.953125 7.26515625Q66.71875 7.1909375 66.3515625 7.058125Q65.984375 6.9253125 65.7578125 6.81984375Q65.53125 6.714375 65.2265625 6.5425Q64.921875 6.370625 64.73828125 6.20265625Q64.5546875 6.0346875 64.34765625 5.8003125Q64.140625 5.5659375 64.02734375 5.31203125Q63.9140625 5.058125 63.83984375 4.73Q63.765625 4.401875 63.7578125 4.0346875Q63.75 3.2456250000000004 64.08203125 2.6128125000000004Q64.4140625 1.9800000000000004 64.98046875 1.5893750000000004Q65.546875 1.1987500000000004 66.2578125 0.9917187500000004Q66.96875 0.7846875000000004 67.7578125 0.7846875000000004Q69.5390625 0.7846875000000004 70.6328125 1.6675000000000004Q71.7265625 2.5503125000000004 71.890625 4.339375H69.9375Q69.7734375 3.3393750000000004 69.24609375 2.8628125000000004Q68.71875 2.3862500000000004 67.7265625 2.3862500000000004Q66.8203125 2.3862500000000004 66.2578125 2.7885937500000004Q65.6953125 3.1909375000000004 65.6953125 4.0190625Q65.6953125 4.3940625 65.86328125 4.683125Q66.03125 4.9721875 66.38671875 5.19484375Q66.7421875 5.4175 67.13671875 5.56984375Q67.53125 5.7221875 68.15625 5.901875Q69.6015625 6.3315625 70.125 6.57375Q71.390625 7.1440625 71.796875 8.1284375Q72.015625 8.6675 72.015625 9.3784375Q72.015625 10.2221875 71.66796875 10.88625Q71.3203125 11.5503125 70.73046875 11.94875Q70.140625 12.3471875 69.4140625 12.5503125Q68.6875 12.7534375 67.875 12.7534375Q66.921875 12.7534375 66.125 12.51515625Q65.328125 12.276875 64.7109375 11.808125Q64.09375 11.339375 63.72265625 10.5815625Q63.3515625 9.82375 63.296875 8.8471875Z"/> <path d="M75.09375 1.0581250000000004Q76.9375 4.5659375 77.75 6.1284375H77.78125Q79.171875 3.5112500000000004 80.40625 1.0581250000000004H82.5859375L78.6953125 7.933125V12.48H76.7578125V7.933125L72.890625 1.0581250000000004Z"/> <path d="M85.3828125 8.8471875Q85.453125 9.94875 86.15625 10.5425Q86.859375 11.13625 87.9921875 11.13625Q89.0 11.13625 89.59765625 10.69875Q90.1953125 10.26125 90.1953125 9.3940625Q90.1953125 9.0503125 90.078125 8.7846875Q89.9609375 8.5190625 89.796875 8.35109375Q89.6328125 8.183125 89.30078125 8.02296875Q88.96875 7.8628125 88.703125 7.77296875Q88.4375 7.683125 87.9609375 7.5346875Q87.90625 7.5190625 87.875 7.50734375Q87.84375 7.495625 87.79296875 7.48390625Q87.7421875 7.4721875 87.703125 7.4565625Q87.3046875 7.339375 87.0703125 7.26515625Q86.8359375 7.1909375 86.46875 7.058125Q86.1015625 6.9253125 85.875 6.81984375Q85.6484375 6.714375 85.34375 6.5425Q85.0390625 6.370625 84.85546875 6.20265625Q84.671875 6.0346875 84.46484375 5.8003125Q84.2578125 5.5659375 84.14453125 5.31203125Q84.03125 5.058125 83.95703125 4.73Q83.8828125 4.401875 83.875 4.0346875Q83.8671875 3.2456250000000004 84.19921875 2.6128125000000004Q84.53125 1.9800000000000004 85.09765625 1.5893750000000004Q85.6640625 1.1987500000000004 86.375 0.9917187500000004Q87.0859375 0.7846875000000004 87.875 0.7846875000000004Q89.65625 0.7846875000000004 90.75 1.6675000000000004Q91.84375 2.5503125000000004 92.0078125 4.339375H90.0546875Q89.890625 3.3393750000000004 89.36328125 2.8628125000000004Q88.8359375 2.3862500000000004 87.84375 2.3862500000000004Q86.9375 2.3862500000000004 86.375 2.7885937500000004Q85.8125 3.1909375000000004 85.8125 4.0190625Q85.8125 4.3940625 85.98046875 4.683125Q86.1484375 4.9721875 86.50390625 5.19484375Q86.859375 5.4175 87.25390625 5.56984375Q87.6484375 5.7221875 88.2734375 5.901875Q89.71875 6.3315625 90.2421875 6.57375Q91.5078125 7.1440625 91.9140625 8.1284375Q92.1328125 8.6675 92.1328125 9.3784375Q92.1328125 10.2221875 91.78515625 10.88625Q91.4375 11.5503125 90.84765625 11.94875Q90.2578125 12.3471875 89.53125 12.5503125Q88.8046875 12.7534375 87.9921875 12.7534375Q87.0390625 12.7534375 86.2421875 12.51515625Q85.4453125 12.276875 84.828125 11.808125Q84.2109375 11.339375 83.83984375 10.5815625Q83.46875 9.82375 83.4140625 8.8471875Z"/> <path d="M93.0078125 2.6909375000000004V1.0581250000000004H101.7265625V2.6909375000000004H98.3203125V12.48H96.3828125V2.6909375000000004Z"/> <path d="M110.421875 1.0581250000000004V2.6909375000000004H105.046875V5.88625H110.0859375V7.5034375H105.046875V10.8471875H110.4765625V12.48H103.1171875V1.0581250000000004Z"/> <path d="M112.5390625 12.48V1.0581250000000004L115.546875 1.0737500000000004L118.484375 10.1753125H118.5L121.3984375 1.0581250000000004H124.390625V12.48H122.5390625V3.2925000000000004H122.484375L119.4921875 12.48H117.4453125L114.4375 3.2925000000000004H114.390625V12.48Z"/>
  </g>
</svg>
